<mxfile host="65bd71144e">
    <diagram id="wJjFDpm9GOEmU09CiQZd" name="Nhân viên">
        <mxGraphModel dx="1003" dy="719" grid="1" gridSize="10" guides="1" tooltips="1" connect="1" arrows="1" fold="1" page="1" pageScale="1" pageWidth="850" pageHeight="1100" math="0" shadow="0">
            <root>
                <mxCell id="WjB0gjLMXh-v31FT7Nd1-0"/>
                <mxCell id="WjB0gjLMXh-v31FT7Nd1-1" parent="WjB0gjLMXh-v31FT7Nd1-0"/>
                <mxCell id="5DAAZ6V2rE8kJXYzP1lH-15" value="Nhân viên B" style="rounded=0;whiteSpace=wrap;html=1;" parent="WjB0gjLMXh-v31FT7Nd1-1" vertex="1">
                    <mxGeometry x="110" y="240" width="110" height="100" as="geometry"/>
                </mxCell>
                <mxCell id="5DAAZ6V2rE8kJXYzP1lH-16" value="Nhân viên A" style="rounded=0;whiteSpace=wrap;html=1;" parent="WjB0gjLMXh-v31FT7Nd1-1" vertex="1">
                    <mxGeometry y="240" width="100" height="100" as="geometry"/>
                </mxCell>
                <mxCell id="5DAAZ6V2rE8kJXYzP1lH-17" value="Nhân viên C" style="rounded=0;whiteSpace=wrap;html=1;" parent="WjB0gjLMXh-v31FT7Nd1-1" vertex="1">
                    <mxGeometry x="230" y="240" width="120" height="100" as="geometry"/>
                </mxCell>
                <mxCell id="5DAAZ6V2rE8kJXYzP1lH-18" value="Nhân viên D" style="rounded=0;whiteSpace=wrap;html=1;" parent="WjB0gjLMXh-v31FT7Nd1-1" vertex="1">
                    <mxGeometry x="355" y="240" width="120" height="100" as="geometry"/>
                </mxCell>
                <mxCell id="5DAAZ6V2rE8kJXYzP1lH-19" value="Nhân viên E" style="rounded=0;whiteSpace=wrap;html=1;" parent="WjB0gjLMXh-v31FT7Nd1-1" vertex="1">
                    <mxGeometry x="480" y="240" width="120" height="100" as="geometry"/>
                </mxCell>
                <mxCell id="5DAAZ6V2rE8kJXYzP1lH-20" value="Nhân viên G" style="rounded=0;whiteSpace=wrap;html=1;" parent="WjB0gjLMXh-v31FT7Nd1-1" vertex="1">
                    <mxGeometry x="610" y="240" width="110" height="100" as="geometry"/>
                </mxCell>
                <mxCell id="5DAAZ6V2rE8kJXYzP1lH-21" value="Nhân viên H" style="rounded=0;whiteSpace=wrap;html=1;" parent="WjB0gjLMXh-v31FT7Nd1-1" vertex="1">
                    <mxGeometry x="730" y="240" width="110" height="100" as="geometry"/>
                </mxCell>
                <mxCell id="uXP6oZ5_RdLUxFhCjeWf-1" value="" style="endArrow=none;html=1;fontSize=24;entryX=0.535;entryY=0.987;entryDx=0;entryDy=0;entryPerimeter=0;" parent="WjB0gjLMXh-v31FT7Nd1-1" edge="1" target="XOch1luoBKgWJTnpo3y6-14">
                    <mxGeometry width="50" height="50" relative="1" as="geometry">
                        <mxPoint x="220" y="160" as="sourcePoint"/>
                        <mxPoint x="220" y="120" as="targetPoint"/>
                    </mxGeometry>
                </mxCell>
                <mxCell id="uXP6oZ5_RdLUxFhCjeWf-2" value="" style="endArrow=none;html=1;fontSize=24;" parent="WjB0gjLMXh-v31FT7Nd1-1" edge="1">
                    <mxGeometry width="50" height="50" relative="1" as="geometry">
                        <mxPoint x="40" y="160" as="sourcePoint"/>
                        <mxPoint x="790" y="160" as="targetPoint"/>
                    </mxGeometry>
                </mxCell>
                <mxCell id="uXP6oZ5_RdLUxFhCjeWf-3" value="" style="endArrow=classic;html=1;fontSize=24;entryX=0.412;entryY=-0.006;entryDx=0;entryDy=0;entryPerimeter=0;" parent="WjB0gjLMXh-v31FT7Nd1-1" target="5DAAZ6V2rE8kJXYzP1lH-16" edge="1">
                    <mxGeometry width="50" height="50" relative="1" as="geometry">
                        <mxPoint x="40" y="160" as="sourcePoint"/>
                        <mxPoint x="90" y="110" as="targetPoint"/>
                    </mxGeometry>
                </mxCell>
                <mxCell id="uXP6oZ5_RdLUxFhCjeWf-4" value="" style="endArrow=classic;html=1;fontSize=24;entryX=0.5;entryY=0;entryDx=0;entryDy=0;" parent="WjB0gjLMXh-v31FT7Nd1-1" target="5DAAZ6V2rE8kJXYzP1lH-15" edge="1">
                    <mxGeometry width="50" height="50" relative="1" as="geometry">
                        <mxPoint x="165" y="160" as="sourcePoint"/>
                        <mxPoint x="220" y="110" as="targetPoint"/>
                    </mxGeometry>
                </mxCell>
                <mxCell id="uXP6oZ5_RdLUxFhCjeWf-5" value="" style="endArrow=classic;html=1;fontSize=24;entryX=0.417;entryY=0;entryDx=0;entryDy=0;entryPerimeter=0;" parent="WjB0gjLMXh-v31FT7Nd1-1" target="5DAAZ6V2rE8kJXYzP1lH-17" edge="1">
                    <mxGeometry width="50" height="50" relative="1" as="geometry">
                        <mxPoint x="280" y="160" as="sourcePoint"/>
                        <mxPoint x="330" y="110" as="targetPoint"/>
                    </mxGeometry>
                </mxCell>
                <mxCell id="uXP6oZ5_RdLUxFhCjeWf-6" value="" style="endArrow=classic;html=1;fontSize=24;entryX=0.585;entryY=-0.022;entryDx=0;entryDy=0;entryPerimeter=0;" parent="WjB0gjLMXh-v31FT7Nd1-1" target="5DAAZ6V2rE8kJXYzP1lH-18" edge="1">
                    <mxGeometry width="50" height="50" relative="1" as="geometry">
                        <mxPoint x="425" y="160" as="sourcePoint"/>
                        <mxPoint x="424" y="200" as="targetPoint"/>
                    </mxGeometry>
                </mxCell>
                <mxCell id="uXP6oZ5_RdLUxFhCjeWf-7" value="" style="endArrow=classic;html=1;fontSize=24;entryX=0.583;entryY=0;entryDx=0;entryDy=0;entryPerimeter=0;" parent="WjB0gjLMXh-v31FT7Nd1-1" target="5DAAZ6V2rE8kJXYzP1lH-19" edge="1">
                    <mxGeometry width="50" height="50" relative="1" as="geometry">
                        <mxPoint x="550" y="160" as="sourcePoint"/>
                        <mxPoint x="600" y="115" as="targetPoint"/>
                    </mxGeometry>
                </mxCell>
                <mxCell id="uXP6oZ5_RdLUxFhCjeWf-8" value="" style="endArrow=classic;html=1;fontSize=24;entryX=0.444;entryY=0.002;entryDx=0;entryDy=0;entryPerimeter=0;" parent="WjB0gjLMXh-v31FT7Nd1-1" target="5DAAZ6V2rE8kJXYzP1lH-20" edge="1">
                    <mxGeometry width="50" height="50" relative="1" as="geometry">
                        <mxPoint x="660" y="160" as="sourcePoint"/>
                        <mxPoint x="710" y="110" as="targetPoint"/>
                    </mxGeometry>
                </mxCell>
                <mxCell id="uXP6oZ5_RdLUxFhCjeWf-9" value="" style="endArrow=classic;html=1;fontSize=24;" parent="WjB0gjLMXh-v31FT7Nd1-1" edge="1">
                    <mxGeometry width="50" height="50" relative="1" as="geometry">
                        <mxPoint x="790" y="160" as="sourcePoint"/>
                        <mxPoint x="790" y="240" as="targetPoint"/>
                    </mxGeometry>
                </mxCell>
                <mxCell id="XOch1luoBKgWJTnpo3y6-31" value="" style="edgeStyle=none;html=1;fontSize=18;fontColor=#FFFFFF;" edge="1" parent="WjB0gjLMXh-v31FT7Nd1-1">
                    <mxGeometry relative="1" as="geometry">
                        <mxPoint x="260" y="395" as="sourcePoint"/>
                        <mxPoint x="260" y="395" as="targetPoint"/>
                    </mxGeometry>
                </mxCell>
                <mxCell id="XOch1luoBKgWJTnpo3y6-2" value="Logo" style="rounded=1;whiteSpace=wrap;html=1;fontSize=18;" vertex="1" parent="WjB0gjLMXh-v31FT7Nd1-1">
                    <mxGeometry x="20" y="10" width="120" height="60" as="geometry"/>
                </mxCell>
                <mxCell id="XOch1luoBKgWJTnpo3y6-13" value="" style="strokeWidth=1;shadow=0;dashed=0;align=center;html=1;shape=mxgraph.mockup.forms.rrect;rSize=0;fontSize=18;gradientColor=none;" vertex="1" parent="WjB0gjLMXh-v31FT7Nd1-1">
                    <mxGeometry x="160" y="25" width="400" height="35" as="geometry"/>
                </mxCell>
                <mxCell id="XOch1luoBKgWJTnpo3y6-14" value="Nhân viên" style="fillColor=#33FFFF;strokeWidth=1;shadow=0;dashed=0;align=center;html=1;shape=mxgraph.mockup.forms.rrect;rSize=0;fontSize=17;strokeColor=#5656FC;" vertex="1" parent="XOch1luoBKgWJTnpo3y6-13">
                    <mxGeometry width="110" height="30" as="geometry"/>
                </mxCell>
                <mxCell id="XOch1luoBKgWJTnpo3y6-15" value="Phòng ban" style="strokeColor=#006EAF;fillColor=#33FFFF;strokeWidth=1;shadow=0;dashed=0;align=center;html=1;shape=mxgraph.mockup.forms.rrect;rSize=0;fontSize=17;fontColor=#ffffff;" vertex="1" parent="XOch1luoBKgWJTnpo3y6-13">
                    <mxGeometry x="110" width="140" height="30" as="geometry"/>
                </mxCell>
                <mxCell id="XOch1luoBKgWJTnpo3y6-16" value="Lương" style="strokeColor=#3700CC;fillColor=#33FFFF;strokeWidth=1;shadow=0;dashed=0;align=center;html=1;shape=mxgraph.mockup.forms.rrect;rSize=0;fontSize=17;fontColor=#ffffff;" vertex="1" parent="XOch1luoBKgWJTnpo3y6-13">
                    <mxGeometry x="250" width="150" height="30" as="geometry"/>
                </mxCell>
                <mxCell id="XOch1luoBKgWJTnpo3y6-20" style="edgeStyle=none;html=1;fontSize=18;" edge="1" parent="XOch1luoBKgWJTnpo3y6-13" target="XOch1luoBKgWJTnpo3y6-13">
                    <mxGeometry relative="1" as="geometry">
                        <mxPoint x="400" y="15" as="sourcePoint"/>
                    </mxGeometry>
                </mxCell>
                <mxCell id="XOch1luoBKgWJTnpo3y6-21" value="Nhân viên" style="strokeWidth=1;shadow=0;dashed=0;align=center;html=1;shape=mxgraph.mockup.navigation.anchor;fontSize=17;fontColor=#666666;fontStyle=1;fillColor=#33FFFF;" vertex="1" parent="WjB0gjLMXh-v31FT7Nd1-1">
                    <mxGeometry x="40" y="90" width="90" height="30" as="geometry"/>
                </mxCell>
                <mxCell id="XOch1luoBKgWJTnpo3y6-22" value="&gt;" style="strokeWidth=1;shadow=0;dashed=0;align=center;html=1;shape=mxgraph.mockup.navigation.anchor;fontSize=24;fontColor=#aaaaaa;fontStyle=1;fillColor=#33FFFF;" vertex="1" parent="WjB0gjLMXh-v31FT7Nd1-1">
                    <mxGeometry x="130" y="90" width="20" height="30" as="geometry"/>
                </mxCell>
                <mxCell id="XOch1luoBKgWJTnpo3y6-30" value="Search" style="rounded=1;whiteSpace=wrap;html=1;fontSize=18;fontColor=#FFFFFF;strokeColor=#5656FC;fillColor=#33FFFF;" vertex="1" parent="WjB0gjLMXh-v31FT7Nd1-1">
                    <mxGeometry x="630" y="85" width="180" height="40" as="geometry"/>
                </mxCell>
                <mxCell id="G--ehdj1mrZMAc5Dt3QT-0" value="" style="edgeStyle=none;html=1;fontSize=18;fontColor=#FFFFFF;" edge="1" parent="WjB0gjLMXh-v31FT7Nd1-1">
                    <mxGeometry relative="1" as="geometry">
                        <mxPoint x="260" y="360" as="sourcePoint"/>
                        <mxPoint x="260" y="360" as="targetPoint"/>
                    </mxGeometry>
                </mxCell>
                <mxCell id="G--ehdj1mrZMAc5Dt3QT-1" value="" style="rounded=1;whiteSpace=wrap;html=1;fontSize=18;" vertex="1" parent="WjB0gjLMXh-v31FT7Nd1-1">
                    <mxGeometry x="10" y="365" width="830" height="165" as="geometry"/>
                </mxCell>
                <mxCell id="G--ehdj1mrZMAc5Dt3QT-2" value="About&amp;nbsp;&lt;br&gt;About text" style="rounded=0;whiteSpace=wrap;html=1;fontSize=18;" vertex="1" parent="WjB0gjLMXh-v31FT7Nd1-1">
                    <mxGeometry x="40" y="370" width="360" height="150" as="geometry"/>
                </mxCell>
                <mxCell id="G--ehdj1mrZMAc5Dt3QT-3" value="Social link&lt;br&gt;&lt;br&gt;Facebook&lt;br&gt;Google&lt;br&gt;Twitter&lt;br&gt;Youtube&lt;br&gt;" style="rounded=0;whiteSpace=wrap;html=1;fontSize=18;" vertex="1" parent="WjB0gjLMXh-v31FT7Nd1-1">
                    <mxGeometry x="440" y="370" width="360" height="150" as="geometry"/>
                </mxCell>
            </root>
        </mxGraphModel>
    </diagram>
    <diagram id="vCJchNpZpQthcplEAxcU" name="Phòng ban">
        <mxGraphModel dx="944" dy="676" grid="1" gridSize="10" guides="1" tooltips="1" connect="1" arrows="1" fold="1" page="1" pageScale="1" pageWidth="850" pageHeight="1100" math="0" shadow="0">
            <root>
                <mxCell id="J8trbaSnto4hoMV7mOAd-0"/>
                <mxCell id="J8trbaSnto4hoMV7mOAd-1" parent="J8trbaSnto4hoMV7mOAd-0"/>
                <mxCell id="B7I0SGrNpNbWcyDWFVy5-1" value="" style="endArrow=none;html=1;fontSize=24;" parent="J8trbaSnto4hoMV7mOAd-1" edge="1">
                    <mxGeometry width="50" height="50" relative="1" as="geometry">
                        <mxPoint x="80" y="200" as="sourcePoint"/>
                        <mxPoint x="760" y="200" as="targetPoint"/>
                    </mxGeometry>
                </mxCell>
                <mxCell id="B7I0SGrNpNbWcyDWFVy5-5" value="&lt;span style=&quot;font-size: 24px&quot;&gt;&amp;nbsp; Sales&lt;/span&gt;&lt;br&gt;&lt;font size=&quot;3&quot;&gt;Số lượng:&lt;/font&gt;" style="rounded=0;whiteSpace=wrap;html=1;" parent="J8trbaSnto4hoMV7mOAd-1" vertex="1">
                    <mxGeometry y="320" width="140" height="80" as="geometry"/>
                </mxCell>
                <mxCell id="B7I0SGrNpNbWcyDWFVy5-6" value="&lt;font style=&quot;font-size: 24px&quot;&gt;HR&lt;br&gt;&lt;span style=&quot;color: rgba(0 , 0 , 0 , 0) ; font-family: monospace ; font-size: 0px&quot;&gt;%3CmxGraphModel%3E%3Croot%3E%3CmxCell%20id%3D%220%22%2F%3E%3CmxCell%20id%3D%221%22%20parent%3D%220%22%2F%3E%3CmxCell%20id%3D%222%22%20value%3D%22%26lt%3Bfont%20style%3D%26quot%3Bfont-size%3A%2036px%26quot%3B%26gt%3BH%C3%ACnh%20nh%C3%A2n%20vi%C3%AAn%26lt%3B%2Ffont%26gt%3B%22%20style%3D%22rounded%3D0%3BwhiteSpace%3Dwrap%3Bhtml%3D1%3B%22%20vertex%3D%221%22%20parent%3D%221%22%3E%3CmxGeometry%20x%3D%2240%22%20y%3D%2240%22%20width%3D%22320%22%20height%3D%22360%22%20as%3D%22geometry%22%2F%3E%3C%2FmxCell%3E%3C%2Froot%3E%3C%2FmxGraphModel%3E&lt;/span&gt;&lt;span style=&quot;font-size: medium&quot;&gt;Số lượng:&lt;/span&gt;&lt;br&gt;&lt;/font&gt;" style="rounded=0;whiteSpace=wrap;html=1;" parent="J8trbaSnto4hoMV7mOAd-1" vertex="1">
                    <mxGeometry x="170" y="320" width="160" height="80" as="geometry"/>
                </mxCell>
                <mxCell id="B7I0SGrNpNbWcyDWFVy5-7" value="&lt;font style=&quot;font-size: 24px&quot;&gt;&amp;nbsp;Marketing&lt;br&gt;&lt;span style=&quot;font-size: medium&quot;&gt;Số lượng:&lt;/span&gt;&lt;br&gt;&lt;/font&gt;" style="rounded=0;whiteSpace=wrap;html=1;" parent="J8trbaSnto4hoMV7mOAd-1" vertex="1">
                    <mxGeometry x="355" y="320" width="140" height="80" as="geometry"/>
                </mxCell>
                <mxCell id="B7I0SGrNpNbWcyDWFVy5-8" value="&lt;font style=&quot;font-size: 24px&quot;&gt;&amp;nbsp;IT&lt;br&gt;&lt;span style=&quot;font-size: medium&quot;&gt;Số lượng:&lt;/span&gt;&lt;span&gt;&#9;&lt;/span&gt;&lt;/font&gt;" style="rounded=0;whiteSpace=wrap;html=1;" parent="J8trbaSnto4hoMV7mOAd-1" vertex="1">
                    <mxGeometry x="530" y="320" width="140" height="80" as="geometry"/>
                </mxCell>
                <mxCell id="B7I0SGrNpNbWcyDWFVy5-9" value="&lt;font style=&quot;font-size: 24px&quot;&gt;&amp;nbsp;Finance&lt;br&gt;&lt;span style=&quot;font-size: medium&quot;&gt;Số lượng:&lt;/span&gt;&lt;br&gt;&lt;/font&gt;" style="rounded=0;whiteSpace=wrap;html=1;" parent="J8trbaSnto4hoMV7mOAd-1" vertex="1">
                    <mxGeometry x="700" y="320" width="140" height="80" as="geometry"/>
                </mxCell>
                <mxCell id="B7I0SGrNpNbWcyDWFVy5-11" value="" style="endArrow=classic;html=1;fontSize=24;entryX=0.58;entryY=-0.037;entryDx=0;entryDy=0;entryPerimeter=0;" parent="J8trbaSnto4hoMV7mOAd-1" target="B7I0SGrNpNbWcyDWFVy5-5" edge="1">
                    <mxGeometry width="50" height="50" relative="1" as="geometry">
                        <mxPoint x="81" y="200" as="sourcePoint"/>
                        <mxPoint x="80" y="290" as="targetPoint"/>
                        <Array as="points"/>
                    </mxGeometry>
                </mxCell>
                <mxCell id="B7I0SGrNpNbWcyDWFVy5-12" value="" style="endArrow=classic;html=1;fontSize=24;entryX=0.5;entryY=0;entryDx=0;entryDy=0;" parent="J8trbaSnto4hoMV7mOAd-1" target="B7I0SGrNpNbWcyDWFVy5-6" edge="1">
                    <mxGeometry width="50" height="50" relative="1" as="geometry">
                        <mxPoint x="250" y="200" as="sourcePoint"/>
                        <mxPoint x="249.70000000000005" y="297.03999999999996" as="targetPoint"/>
                        <Array as="points"/>
                    </mxGeometry>
                </mxCell>
                <mxCell id="B7I0SGrNpNbWcyDWFVy5-14" value="" style="endArrow=classic;html=1;fontSize=24;entryX=0.5;entryY=0;entryDx=0;entryDy=0;" parent="J8trbaSnto4hoMV7mOAd-1" target="B7I0SGrNpNbWcyDWFVy5-8" edge="1">
                    <mxGeometry width="50" height="50" relative="1" as="geometry">
                        <mxPoint x="600" y="200" as="sourcePoint"/>
                        <mxPoint x="599.7" y="297.03999999999996" as="targetPoint"/>
                        <Array as="points"/>
                    </mxGeometry>
                </mxCell>
                <mxCell id="B7I0SGrNpNbWcyDWFVy5-15" value="" style="endArrow=classic;html=1;fontSize=24;entryX=0.437;entryY=-0.037;entryDx=0;entryDy=0;entryPerimeter=0;" parent="J8trbaSnto4hoMV7mOAd-1" target="B7I0SGrNpNbWcyDWFVy5-9" edge="1">
                    <mxGeometry width="50" height="50" relative="1" as="geometry">
                        <mxPoint x="761" y="200" as="sourcePoint"/>
                        <mxPoint x="760" y="287.04" as="targetPoint"/>
                        <Array as="points"/>
                    </mxGeometry>
                </mxCell>
                <mxCell id="wLO04yEoGt9mDOPF9oa5-0" value="Logo" style="rounded=1;whiteSpace=wrap;html=1;fontSize=18;" vertex="1" parent="J8trbaSnto4hoMV7mOAd-1">
                    <mxGeometry x="20" y="10" width="120" height="60" as="geometry"/>
                </mxCell>
                <mxCell id="Z3-FyhH3_2yaaDqn2n7i-0" value="" style="strokeWidth=1;shadow=0;dashed=0;align=center;html=1;shape=mxgraph.mockup.forms.rrect;rSize=0;fontSize=18;gradientColor=none;" vertex="1" parent="J8trbaSnto4hoMV7mOAd-1">
                    <mxGeometry x="190" y="25" width="400" height="35" as="geometry"/>
                </mxCell>
                <mxCell id="Z3-FyhH3_2yaaDqn2n7i-1" value="Nhân viên" style="fillColor=#33FFFF;strokeWidth=1;shadow=0;dashed=0;align=center;html=1;shape=mxgraph.mockup.forms.rrect;rSize=0;fontSize=17;strokeColor=#5656FC;" vertex="1" parent="Z3-FyhH3_2yaaDqn2n7i-0">
                    <mxGeometry width="110" height="30" as="geometry"/>
                </mxCell>
                <mxCell id="Z3-FyhH3_2yaaDqn2n7i-2" value="Phòng ban" style="strokeColor=#006EAF;fillColor=#33FFFF;strokeWidth=1;shadow=0;dashed=0;align=center;html=1;shape=mxgraph.mockup.forms.rrect;rSize=0;fontSize=17;fontColor=#ffffff;" vertex="1" parent="Z3-FyhH3_2yaaDqn2n7i-0">
                    <mxGeometry x="110" width="140" height="30" as="geometry"/>
                </mxCell>
                <mxCell id="Z3-FyhH3_2yaaDqn2n7i-3" value="Lương" style="strokeColor=#3700CC;fillColor=#33FFFF;strokeWidth=1;shadow=0;dashed=0;align=center;html=1;shape=mxgraph.mockup.forms.rrect;rSize=0;fontSize=17;fontColor=#ffffff;" vertex="1" parent="Z3-FyhH3_2yaaDqn2n7i-0">
                    <mxGeometry x="250" width="150" height="30" as="geometry"/>
                </mxCell>
                <mxCell id="Z3-FyhH3_2yaaDqn2n7i-4" style="edgeStyle=none;html=1;fontSize=18;" edge="1" parent="Z3-FyhH3_2yaaDqn2n7i-0" target="Z3-FyhH3_2yaaDqn2n7i-0">
                    <mxGeometry relative="1" as="geometry">
                        <mxPoint x="400" y="15" as="sourcePoint"/>
                    </mxGeometry>
                </mxCell>
                <mxCell id="p2IE-Pn9JPBUqzHjMcKJ-0" value="Phòng ban" style="strokeWidth=1;shadow=0;dashed=0;align=center;html=1;shape=mxgraph.mockup.navigation.anchor;fontSize=17;fontColor=#666666;fontStyle=1;fillColor=#33FFFF;" vertex="1" parent="J8trbaSnto4hoMV7mOAd-1">
                    <mxGeometry x="40" y="90" width="90" height="30" as="geometry"/>
                </mxCell>
                <mxCell id="9GuIOEP9Hasc8in1DkPj-0" value="&gt;" style="strokeWidth=1;shadow=0;dashed=0;align=center;html=1;shape=mxgraph.mockup.navigation.anchor;fontSize=24;fontColor=#aaaaaa;fontStyle=1;fillColor=#33FFFF;" vertex="1" parent="J8trbaSnto4hoMV7mOAd-1">
                    <mxGeometry x="130" y="90" width="20" height="30" as="geometry"/>
                </mxCell>
                <mxCell id="m6i-LpKmSSTymM3Wm2si-2" value="" style="endArrow=classic;html=1;fontSize=18;fontColor=#FFFFFF;entryX=0.5;entryY=0;entryDx=0;entryDy=0;" edge="1" parent="J8trbaSnto4hoMV7mOAd-1" target="B7I0SGrNpNbWcyDWFVy5-7">
                    <mxGeometry width="50" height="50" relative="1" as="geometry">
                        <mxPoint x="424" y="60" as="sourcePoint"/>
                        <mxPoint x="424" y="200" as="targetPoint"/>
                        <Array as="points">
                            <mxPoint x="424" y="130"/>
                        </Array>
                    </mxGeometry>
                </mxCell>
                <mxCell id="g2JmfWGi5vW9lwo2pkzC-0" value="" style="edgeStyle=none;html=1;fontSize=18;fontColor=#FFFFFF;" edge="1" parent="J8trbaSnto4hoMV7mOAd-1">
                    <mxGeometry relative="1" as="geometry">
                        <mxPoint x="260" y="420" as="sourcePoint"/>
                        <mxPoint x="260" y="420" as="targetPoint"/>
                    </mxGeometry>
                </mxCell>
                <mxCell id="_DnAaN9IzsZV7OtFYWZG-0" value="" style="edgeStyle=none;html=1;fontSize=18;fontColor=#FFFFFF;" edge="1" parent="J8trbaSnto4hoMV7mOAd-1">
                    <mxGeometry relative="1" as="geometry">
                        <mxPoint x="260" y="410" as="sourcePoint"/>
                        <mxPoint x="260" y="410" as="targetPoint"/>
                    </mxGeometry>
                </mxCell>
                <mxCell id="_DnAaN9IzsZV7OtFYWZG-1" value="" style="rounded=1;whiteSpace=wrap;html=1;fontSize=18;" vertex="1" parent="J8trbaSnto4hoMV7mOAd-1">
                    <mxGeometry x="10" y="415" width="830" height="165" as="geometry"/>
                </mxCell>
                <mxCell id="_DnAaN9IzsZV7OtFYWZG-2" value="About&amp;nbsp;&lt;br&gt;About text" style="rounded=0;whiteSpace=wrap;html=1;fontSize=18;" vertex="1" parent="J8trbaSnto4hoMV7mOAd-1">
                    <mxGeometry x="40" y="420" width="360" height="150" as="geometry"/>
                </mxCell>
                <mxCell id="_DnAaN9IzsZV7OtFYWZG-3" value="Social link&lt;br&gt;&lt;br&gt;Facebook&lt;br&gt;Google&lt;br&gt;Twitter&lt;br&gt;Youtube&lt;br&gt;" style="rounded=0;whiteSpace=wrap;html=1;fontSize=18;" vertex="1" parent="J8trbaSnto4hoMV7mOAd-1">
                    <mxGeometry x="440" y="420" width="360" height="150" as="geometry"/>
                </mxCell>
            </root>
        </mxGraphModel>
    </diagram>
    <diagram id="Rm2KINWGvWYN-aqcMVKR" name="Lương">
        <mxGraphModel dx="1146" dy="821" grid="1" gridSize="10" guides="1" tooltips="1" connect="1" arrows="1" fold="1" page="1" pageScale="1" pageWidth="850" pageHeight="1100" math="0" shadow="0">
            <root>
                <mxCell id="vfvMhhXysByKfhHB_uyl-0"/>
                <mxCell id="vfvMhhXysByKfhHB_uyl-1" parent="vfvMhhXysByKfhHB_uyl-0"/>
                <mxCell id="oS8txzhTp4winMH8t8Ai-0" value="" style="endArrow=classic;html=1;exitX=0.5;exitY=1;exitDx=0;exitDy=0;entryX=0.5;entryY=0;entryDx=0;entryDy=0;" parent="vfvMhhXysByKfhHB_uyl-1" edge="1" target="8o0eVUqESuRp_L_GPlVe-2">
                    <mxGeometry width="50" height="50" relative="1" as="geometry">
                        <mxPoint x="589.41" y="57.5" as="sourcePoint"/>
                        <mxPoint x="589.8100000000001" y="259.26" as="targetPoint"/>
                    </mxGeometry>
                </mxCell>
                <mxCell id="8kFADUUZfQ_ea_lLD151-0" value="" style="endArrow=none;html=1;fontSize=24;" parent="vfvMhhXysByKfhHB_uyl-1" edge="1">
                    <mxGeometry width="50" height="50" relative="1" as="geometry">
                        <mxPoint x="80" y="200" as="sourcePoint"/>
                        <mxPoint x="760" y="200" as="targetPoint"/>
                    </mxGeometry>
                </mxCell>
                <mxCell id="RfaJv6Aba6bHbtcqF6---0" value="" style="endArrow=classic;html=1;fontSize=24;entryX=0.5;entryY=0;entryDx=0;entryDy=0;" parent="vfvMhhXysByKfhHB_uyl-1" edge="1">
                    <mxGeometry width="50" height="50" relative="1" as="geometry">
                        <mxPoint x="80" y="200" as="sourcePoint"/>
                        <mxPoint x="80" y="320" as="targetPoint"/>
                        <Array as="points"/>
                    </mxGeometry>
                </mxCell>
                <mxCell id="RfaJv6Aba6bHbtcqF6---1" value="" style="endArrow=classic;html=1;fontSize=24;entryX=0.5;entryY=0;entryDx=0;entryDy=0;" parent="vfvMhhXysByKfhHB_uyl-1" edge="1">
                    <mxGeometry width="50" height="50" relative="1" as="geometry">
                        <mxPoint x="250" y="200" as="sourcePoint"/>
                        <mxPoint x="250" y="320" as="targetPoint"/>
                        <Array as="points"/>
                    </mxGeometry>
                </mxCell>
                <mxCell id="RfaJv6Aba6bHbtcqF6---2" value="" style="endArrow=classic;html=1;fontSize=24;entryX=0.5;entryY=0;entryDx=0;entryDy=0;" parent="vfvMhhXysByKfhHB_uyl-1" edge="1">
                    <mxGeometry width="50" height="50" relative="1" as="geometry">
                        <mxPoint x="420" y="200" as="sourcePoint"/>
                        <mxPoint x="420" y="320" as="targetPoint"/>
                        <Array as="points"/>
                    </mxGeometry>
                </mxCell>
                <mxCell id="RfaJv6Aba6bHbtcqF6---3" value="" style="endArrow=classic;html=1;fontSize=24;entryX=0.5;entryY=0;entryDx=0;entryDy=0;" parent="vfvMhhXysByKfhHB_uyl-1" edge="1">
                    <mxGeometry width="50" height="50" relative="1" as="geometry">
                        <mxPoint x="759.41" y="200" as="sourcePoint"/>
                        <mxPoint x="759.41" y="320" as="targetPoint"/>
                        <Array as="points"/>
                    </mxGeometry>
                </mxCell>
                <mxCell id="8o0eVUqESuRp_L_GPlVe-1" value="Nhân viên E&lt;br&gt;&lt;div style=&quot;text-align: justify&quot;&gt;Mã số:&lt;/div&gt;&lt;div style=&quot;text-align: justify&quot;&gt;Hệ số lương:&lt;/div&gt;&lt;div style=&quot;text-align: justify&quot;&gt;Số giờ làm thêm:&lt;/div&gt;&lt;div style=&quot;text-align: justify&quot;&gt;Lương:&lt;/div&gt;" style="rounded=0;whiteSpace=wrap;html=1;" parent="vfvMhhXysByKfhHB_uyl-1" vertex="1">
                    <mxGeometry x="680" y="320" width="160" height="120" as="geometry"/>
                </mxCell>
                <mxCell id="8o0eVUqESuRp_L_GPlVe-2" value="Nhân viên D&lt;br&gt;&lt;div style=&quot;text-align: justify&quot;&gt;Mã số:&lt;/div&gt;&lt;div style=&quot;text-align: justify&quot;&gt;Hệ số lương:&lt;/div&gt;&lt;div style=&quot;text-align: justify&quot;&gt;Số giờ làm thêm:&lt;/div&gt;&lt;div style=&quot;text-align: justify&quot;&gt;Lương:&lt;/div&gt;" style="rounded=0;whiteSpace=wrap;html=1;" parent="vfvMhhXysByKfhHB_uyl-1" vertex="1">
                    <mxGeometry x="510" y="320" width="160" height="120" as="geometry"/>
                </mxCell>
                <mxCell id="8o0eVUqESuRp_L_GPlVe-3" value="Nhân viên C&lt;br&gt;&lt;div style=&quot;text-align: justify&quot;&gt;Mã số:&lt;/div&gt;&lt;div style=&quot;text-align: justify&quot;&gt;Hệ số lương:&lt;/div&gt;&lt;div style=&quot;text-align: justify&quot;&gt;Số giờ làm thêm:&lt;/div&gt;&lt;div style=&quot;text-align: justify&quot;&gt;Lương:&lt;/div&gt;" style="rounded=0;whiteSpace=wrap;html=1;" parent="vfvMhhXysByKfhHB_uyl-1" vertex="1">
                    <mxGeometry x="340" y="320" width="160" height="120" as="geometry"/>
                </mxCell>
                <mxCell id="8o0eVUqESuRp_L_GPlVe-5" value="Nhân viên B&lt;br&gt;&lt;div style=&quot;text-align: justify&quot;&gt;Mã số:&lt;/div&gt;&lt;div style=&quot;text-align: justify&quot;&gt;Hệ số lương:&lt;/div&gt;&lt;div style=&quot;text-align: justify&quot;&gt;Số giờ làm thêm:&lt;/div&gt;&lt;div style=&quot;text-align: justify&quot;&gt;Lương:&lt;/div&gt;" style="rounded=0;whiteSpace=wrap;html=1;" parent="vfvMhhXysByKfhHB_uyl-1" vertex="1">
                    <mxGeometry x="170" y="320" width="160" height="120" as="geometry"/>
                </mxCell>
                <mxCell id="8o0eVUqESuRp_L_GPlVe-6" value="&lt;div&gt;&lt;span&gt;Nhân viên A&lt;/span&gt;&lt;/div&gt;&lt;div style=&quot;text-align: left&quot;&gt;&lt;span&gt;Mã số:&lt;/span&gt;&lt;/div&gt;&lt;div style=&quot;text-align: left&quot;&gt;&lt;span&gt;Hệ số lương:&lt;/span&gt;&lt;/div&gt;&lt;div style=&quot;text-align: left&quot;&gt;&lt;span&gt;Số giờ làm thêm:&lt;/span&gt;&lt;/div&gt;&lt;div style=&quot;text-align: left&quot;&gt;&lt;span&gt;Lương:&lt;/span&gt;&lt;/div&gt;" style="rounded=0;whiteSpace=wrap;html=1;align=center;" parent="vfvMhhXysByKfhHB_uyl-1" vertex="1">
                    <mxGeometry y="320" width="160" height="120" as="geometry"/>
                </mxCell>
                <mxCell id="5pNvtDN-1C3LrQetN-r_-0" value="Logo" style="rounded=1;whiteSpace=wrap;html=1;fontSize=18;" vertex="1" parent="vfvMhhXysByKfhHB_uyl-1">
                    <mxGeometry x="20" y="10" width="120" height="60" as="geometry"/>
                </mxCell>
                <mxCell id="jtRqaF90YJvB07GmfRQf-0" value="" style="strokeWidth=1;shadow=0;dashed=0;align=center;html=1;shape=mxgraph.mockup.forms.rrect;rSize=0;fontSize=18;gradientColor=none;" vertex="1" parent="vfvMhhXysByKfhHB_uyl-1">
                    <mxGeometry x="250" y="22.5" width="400" height="35" as="geometry"/>
                </mxCell>
                <mxCell id="jtRqaF90YJvB07GmfRQf-1" value="Nhân viên" style="fillColor=#33FFFF;strokeWidth=1;shadow=0;dashed=0;align=center;html=1;shape=mxgraph.mockup.forms.rrect;rSize=0;fontSize=17;strokeColor=#5656FC;" vertex="1" parent="jtRqaF90YJvB07GmfRQf-0">
                    <mxGeometry width="110" height="30" as="geometry"/>
                </mxCell>
                <mxCell id="jtRqaF90YJvB07GmfRQf-2" value="Phòng ban" style="strokeColor=#006EAF;fillColor=#33FFFF;strokeWidth=1;shadow=0;dashed=0;align=center;html=1;shape=mxgraph.mockup.forms.rrect;rSize=0;fontSize=17;fontColor=#ffffff;" vertex="1" parent="jtRqaF90YJvB07GmfRQf-0">
                    <mxGeometry x="110" width="140" height="30" as="geometry"/>
                </mxCell>
                <mxCell id="jtRqaF90YJvB07GmfRQf-3" value="Lương" style="strokeColor=#3700CC;fillColor=#33FFFF;strokeWidth=1;shadow=0;dashed=0;align=center;html=1;shape=mxgraph.mockup.forms.rrect;rSize=0;fontSize=17;fontColor=#ffffff;" vertex="1" parent="jtRqaF90YJvB07GmfRQf-0">
                    <mxGeometry x="250" width="150" height="30" as="geometry"/>
                </mxCell>
                <mxCell id="jtRqaF90YJvB07GmfRQf-4" style="edgeStyle=none;html=1;fontSize=18;" edge="1" parent="jtRqaF90YJvB07GmfRQf-0" target="jtRqaF90YJvB07GmfRQf-0">
                    <mxGeometry relative="1" as="geometry">
                        <mxPoint x="400" y="15" as="sourcePoint"/>
                    </mxGeometry>
                </mxCell>
                <mxCell id="I8iVnuduQle33KLxoOe0-0" value="" style="edgeStyle=none;html=1;fontSize=18;fontColor=#FFFFFF;" edge="1" parent="vfvMhhXysByKfhHB_uyl-1">
                    <mxGeometry relative="1" as="geometry">
                        <mxPoint x="255" y="450" as="sourcePoint"/>
                        <mxPoint x="255" y="450" as="targetPoint"/>
                    </mxGeometry>
                </mxCell>
                <mxCell id="I8iVnuduQle33KLxoOe0-1" value="" style="rounded=1;whiteSpace=wrap;html=1;fontSize=18;" vertex="1" parent="vfvMhhXysByKfhHB_uyl-1">
                    <mxGeometry x="5" y="455" width="830" height="165" as="geometry"/>
                </mxCell>
                <mxCell id="I8iVnuduQle33KLxoOe0-2" value="About&amp;nbsp;&lt;br&gt;About text" style="rounded=0;whiteSpace=wrap;html=1;fontSize=18;" vertex="1" parent="vfvMhhXysByKfhHB_uyl-1">
                    <mxGeometry x="35" y="460" width="360" height="150" as="geometry"/>
                </mxCell>
                <mxCell id="I8iVnuduQle33KLxoOe0-3" value="Social link&lt;br&gt;&lt;br&gt;Facebook&lt;br&gt;Google&lt;br&gt;Twitter&lt;br&gt;Youtube&lt;br&gt;" style="rounded=0;whiteSpace=wrap;html=1;fontSize=18;" vertex="1" parent="vfvMhhXysByKfhHB_uyl-1">
                    <mxGeometry x="435" y="460" width="360" height="150" as="geometry"/>
                </mxCell>
            </root>
        </mxGraphModel>
    </diagram>
    <diagram id="tnIS0rNTysS_Yc44N7yh" name="Chi tiết Nhân viên">
        <mxGraphModel dx="944" dy="676" grid="1" gridSize="10" guides="1" tooltips="1" connect="1" arrows="1" fold="1" page="1" pageScale="1" pageWidth="850" pageHeight="1100" math="0" shadow="0">
            <root>
                <mxCell id="OEdoRkBSAyIptRfN_Eyi-0"/>
                <mxCell id="OEdoRkBSAyIptRfN_Eyi-1" parent="OEdoRkBSAyIptRfN_Eyi-0"/>
                <mxCell id="OEdoRkBSAyIptRfN_Eyi-2" value="&lt;font style=&quot;font-size: 36px&quot;&gt;Hình nhân viên A&lt;/font&gt;" style="rounded=0;whiteSpace=wrap;html=1;" parent="OEdoRkBSAyIptRfN_Eyi-1" vertex="1">
                    <mxGeometry x="130" y="140" width="220" height="200" as="geometry"/>
                </mxCell>
                <mxCell id="OEdoRkBSAyIptRfN_Eyi-3" value="&lt;div style=&quot;text-align: left&quot;&gt;&lt;span style=&quot;font-size: medium&quot;&gt;Họ và tên:&lt;/span&gt;&lt;/div&gt;&lt;font size=&quot;3&quot;&gt;&lt;div style=&quot;text-align: left&quot;&gt;&lt;span&gt;Ngày sinh:&lt;/span&gt;&lt;/div&gt;&lt;div style=&quot;text-align: left&quot;&gt;&lt;span&gt;Ngày vào công ty:&lt;/span&gt;&lt;/div&gt;&lt;div style=&quot;text-align: left&quot;&gt;&lt;span&gt;Phòng ban:&lt;/span&gt;&lt;/div&gt;&lt;div style=&quot;text-align: left&quot;&gt;&lt;span&gt;Số ngày nghỉ còn lại:&lt;/span&gt;&lt;/div&gt;&lt;div style=&quot;text-align: left&quot;&gt;&lt;span&gt;Số ngày đã làm thêm:&lt;/span&gt;&lt;/div&gt;&lt;/font&gt;" style="rounded=0;whiteSpace=wrap;html=1;" parent="OEdoRkBSAyIptRfN_Eyi-1" vertex="1">
                    <mxGeometry x="350" y="140" width="320" height="200" as="geometry"/>
                </mxCell>
                <mxCell id="zFnyC7xSWwCS1q_fz-H1-0" value="" style="edgeStyle=none;html=1;fontSize=18;fontColor=#FFFFFF;" edge="1" parent="OEdoRkBSAyIptRfN_Eyi-1">
                    <mxGeometry relative="1" as="geometry">
                        <mxPoint x="260" y="395" as="sourcePoint"/>
                        <mxPoint x="260" y="395" as="targetPoint"/>
                    </mxGeometry>
                </mxCell>
                <mxCell id="NdwhnmrFJh9uBGuVBc22-0" value="" style="edgeStyle=none;html=1;fontSize=18;fontColor=#FFFFFF;" edge="1" parent="OEdoRkBSAyIptRfN_Eyi-1">
                    <mxGeometry relative="1" as="geometry">
                        <mxPoint x="260" y="410" as="sourcePoint"/>
                        <mxPoint x="260" y="410" as="targetPoint"/>
                    </mxGeometry>
                </mxCell>
                <mxCell id="-YhZbWk2TkYFpohif9xF-15" value="" style="edgeStyle=none;html=1;fontSize=18;fontColor=#FFFFFF;" edge="1" parent="OEdoRkBSAyIptRfN_Eyi-1">
                    <mxGeometry relative="1" as="geometry">
                        <mxPoint x="260" y="395" as="sourcePoint"/>
                        <mxPoint x="260" y="395" as="targetPoint"/>
                    </mxGeometry>
                </mxCell>
                <mxCell id="-YhZbWk2TkYFpohif9xF-16" value="Logo" style="rounded=1;whiteSpace=wrap;html=1;fontSize=18;" vertex="1" parent="OEdoRkBSAyIptRfN_Eyi-1">
                    <mxGeometry x="20" y="10" width="120" height="60" as="geometry"/>
                </mxCell>
                <mxCell id="-YhZbWk2TkYFpohif9xF-17" value="" style="strokeWidth=1;shadow=0;dashed=0;align=center;html=1;shape=mxgraph.mockup.forms.rrect;rSize=0;fontSize=18;gradientColor=none;" vertex="1" parent="OEdoRkBSAyIptRfN_Eyi-1">
                    <mxGeometry x="160" y="25" width="400" height="35" as="geometry"/>
                </mxCell>
                <mxCell id="-YhZbWk2TkYFpohif9xF-18" value="Nhân viên" style="fillColor=#33FFFF;strokeWidth=1;shadow=0;dashed=0;align=center;html=1;shape=mxgraph.mockup.forms.rrect;rSize=0;fontSize=17;strokeColor=#5656FC;" vertex="1" parent="-YhZbWk2TkYFpohif9xF-17">
                    <mxGeometry width="110" height="30" as="geometry"/>
                </mxCell>
                <mxCell id="-YhZbWk2TkYFpohif9xF-19" value="Phòng ban" style="strokeColor=#006EAF;fillColor=#33FFFF;strokeWidth=1;shadow=0;dashed=0;align=center;html=1;shape=mxgraph.mockup.forms.rrect;rSize=0;fontSize=17;fontColor=#ffffff;" vertex="1" parent="-YhZbWk2TkYFpohif9xF-17">
                    <mxGeometry x="110" width="140" height="30" as="geometry"/>
                </mxCell>
                <mxCell id="-YhZbWk2TkYFpohif9xF-20" value="Lương" style="strokeColor=#3700CC;fillColor=#33FFFF;strokeWidth=1;shadow=0;dashed=0;align=center;html=1;shape=mxgraph.mockup.forms.rrect;rSize=0;fontSize=17;fontColor=#ffffff;" vertex="1" parent="-YhZbWk2TkYFpohif9xF-17">
                    <mxGeometry x="250" width="150" height="30" as="geometry"/>
                </mxCell>
                <mxCell id="-YhZbWk2TkYFpohif9xF-21" style="edgeStyle=none;html=1;fontSize=18;" edge="1" parent="-YhZbWk2TkYFpohif9xF-17" target="-YhZbWk2TkYFpohif9xF-17">
                    <mxGeometry relative="1" as="geometry">
                        <mxPoint x="400" y="15" as="sourcePoint"/>
                    </mxGeometry>
                </mxCell>
                <mxCell id="-YhZbWk2TkYFpohif9xF-22" value="Nhân viên" style="strokeWidth=1;shadow=0;dashed=0;align=center;html=1;shape=mxgraph.mockup.navigation.anchor;fontSize=17;fontColor=#666666;fontStyle=1;fillColor=#33FFFF;" vertex="1" parent="OEdoRkBSAyIptRfN_Eyi-1">
                    <mxGeometry x="40" y="90" width="90" height="30" as="geometry"/>
                </mxCell>
                <mxCell id="-YhZbWk2TkYFpohif9xF-23" value="&gt;" style="strokeWidth=1;shadow=0;dashed=0;align=center;html=1;shape=mxgraph.mockup.navigation.anchor;fontSize=24;fontColor=#aaaaaa;fontStyle=1;fillColor=#33FFFF;" vertex="1" parent="OEdoRkBSAyIptRfN_Eyi-1">
                    <mxGeometry x="130" y="90" width="20" height="30" as="geometry"/>
                </mxCell>
                <mxCell id="-YhZbWk2TkYFpohif9xF-24" value="Search" style="rounded=1;whiteSpace=wrap;html=1;fontSize=18;fontColor=#FFFFFF;strokeColor=#5656FC;fillColor=#33FFFF;" vertex="1" parent="OEdoRkBSAyIptRfN_Eyi-1">
                    <mxGeometry x="630" y="85" width="180" height="40" as="geometry"/>
                </mxCell>
                <mxCell id="-YhZbWk2TkYFpohif9xF-25" value="" style="edgeStyle=none;html=1;fontSize=18;fontColor=#FFFFFF;" edge="1" parent="OEdoRkBSAyIptRfN_Eyi-1">
                    <mxGeometry relative="1" as="geometry">
                        <mxPoint x="260" y="360" as="sourcePoint"/>
                        <mxPoint x="260" y="360" as="targetPoint"/>
                    </mxGeometry>
                </mxCell>
                <mxCell id="-YhZbWk2TkYFpohif9xF-26" value="" style="rounded=1;whiteSpace=wrap;html=1;fontSize=18;" vertex="1" parent="OEdoRkBSAyIptRfN_Eyi-1">
                    <mxGeometry x="10" y="365" width="830" height="165" as="geometry"/>
                </mxCell>
                <mxCell id="-YhZbWk2TkYFpohif9xF-27" value="About&amp;nbsp;&lt;br&gt;About text" style="rounded=0;whiteSpace=wrap;html=1;fontSize=18;" vertex="1" parent="OEdoRkBSAyIptRfN_Eyi-1">
                    <mxGeometry x="40" y="370" width="360" height="150" as="geometry"/>
                </mxCell>
                <mxCell id="-YhZbWk2TkYFpohif9xF-28" value="Social link&lt;br&gt;&lt;br&gt;Facebook&lt;br&gt;Google&lt;br&gt;Twitter&lt;br&gt;Youtube&lt;br&gt;" style="rounded=0;whiteSpace=wrap;html=1;fontSize=18;" vertex="1" parent="OEdoRkBSAyIptRfN_Eyi-1">
                    <mxGeometry x="440" y="370" width="360" height="150" as="geometry"/>
                </mxCell>
                <mxCell id="-YhZbWk2TkYFpohif9xF-31" value="Nhân viên A" style="strokeWidth=1;shadow=0;dashed=0;align=center;html=1;shape=mxgraph.mockup.navigation.anchor;fontSize=17;fontColor=#666666;fontStyle=1;fillColor=#33FFFF;" vertex="1" parent="OEdoRkBSAyIptRfN_Eyi-1">
                    <mxGeometry x="160" y="90" width="100" height="30" as="geometry"/>
                </mxCell>
            </root>
        </mxGraphModel>
    </diagram>
</mxfile>